<?xml version="1.0" encoding="UTF-8"?>
<!DOCTYPE svg PUBLIC "-//W3C//DTD SVG 1.1//EN" "http://www.w3.org/Graphics/SVG/1.1/DTD/svg11.dtd">
<!-- Creator: CorelDRAW -->
<svg xmlns="http://www.w3.org/2000/svg" xml:space="preserve" width="210mm" height="297mm" version="1.1" style="shape-rendering:geometricPrecision; text-rendering:geometricPrecision; image-rendering:optimizeQuality; fill-rule:evenodd; clip-rule:evenodd"
viewBox="0 0 21000 29700"
 xmlns:xlink="http://www.w3.org/1999/xlink"
 xmlns:xodm="http://www.corel.com/coreldraw/odm/2003">
 <defs>
  <style type="text/css">
   <![CDATA[
    .fil0 {fill:#373435;fill-rule:nonzero}
   ]]>
  </style>
 </defs>
 <g id="Capa_x0020_1">
  <metadata id="CorelCorpID_0Corel-Layer"/>
  <path class="fil0" d="M1586.22 12857.97c67.02,58.21 135.81,101.42 209.02,127.88 72.32,27.34 143.75,40.57 214.31,40.57 120.83,0 239.01,-30.87 355.42,-93.48 115.54,-61.74 225.78,-142.88 328.97,-242.54 104.07,-98.78 201.08,-209.9 292.8,-332.49 90.84,-121.71 174.63,-243.42 248.71,-363.36 186.97,-298.1 349.25,-601.49 485.95,-910.17 136.71,-308.68 273.41,-622.65 410.99,-941.92 -141.11,0 -270.76,3.53 -388.94,9.7 -119.06,6.18 -225.78,21.17 -321.03,46.75 -95.25,24.69 -182.56,62.61 -261.05,114.65 -79.38,52.03 -149.93,123.47 -211.67,215.19 -87.31,124.36 -156.1,258.41 -205.49,401.29 -50.27,142.87 -73.2,287.51 -68.79,433.03 4.41,115.54 22.05,204.62 52.91,267.23 30.87,62.62 65.27,136.7 102.31,224.02 -15.88,4.41 -38.81,6.17 -67.91,6.17 -74.97,0 -146.4,-14.99 -215.19,-46.74 -67.91,-30.87 -128.77,-75.85 -182.57,-133.18 -54.68,-58.2 -97.89,-127 -131.41,-205.49 -32.63,-79.37 -51.15,-166.69 -55.56,-261.94 4.41,-119.94 30.87,-235.48 81.14,-345.72 49.39,-109.36 115.53,-214.31 198.44,-313.97 87.31,-99.66 183.44,-183.45 289.27,-252.24 105.84,-68.79 217.85,-122.59 336.03,-161.39 119.06,-39.69 239.88,-67.03 364.24,-83.79 124.35,-16.76 249.59,-24.69 373.94,-24.69 58.21,0 114.66,0.88 171.1,2.64 55.56,1.77 115.54,2.65 177.27,2.65 82.9,-203.73 167.57,-417.16 252.24,-642.06 85.55,-224.01 186.09,-428.62 301.62,-613.83 116.42,-184.33 254.89,-337.79 414.52,-457.73 159.63,-120.83 355.42,-180.8 588.26,-180.8 107.59,0 183.44,28.22 226.65,83.79 44.1,56.44 69.68,127.88 78.5,215.19 3.53,53.8 1.76,113.77 -6.18,180.8 -8.82,66.14 -21.16,134.05 -37.92,204.61 -16.76,70.56 -35.28,142.88 -55.56,215.19 -21.17,72.32 -39.69,140.23 -56.45,201.97 -16.75,67.03 -35.27,141.11 -55.56,224.01 -21.17,83.79 -43.21,167.57 -65.26,252.24 -22.93,85.55 -44.98,169.33 -66.15,252.24 -20.28,82.9 -41.45,157.86 -61.73,224.01 37.04,8.82 90.84,14.99 161.39,18.52 70.56,4.41 146.4,-2.64 227.54,-21.17 81.14,-18.52 160.52,-52.91 239.89,-103.18 78.5,-49.39 141.11,-128.77 186.97,-236.36 3.53,53.79 4.41,98.77 2.65,134.05 -1.76,35.28 -0.88,69.68 3.53,102.31 -45.86,62.62 -103.19,111.12 -171.1,146.4 -68.79,35.28 -143.76,61.74 -224.9,77.61 -80.25,16.76 -161.39,26.46 -242.53,28.22 -81.14,1.77 -152.58,-0.88 -214.31,-8.82 -54.68,169.34 -99.66,332.5 -137.59,488.6 -37.04,155.22 -67.91,298.1 -93.48,429.51 -24.7,130.53 -44.98,245.18 -61.74,344.84 -16.76,99.66 -27.34,179.03 -30.87,237.24 -4.41,82.91 -2.64,156.11 6.18,220.49 7.93,64.38 37.04,129.64 86.43,196.67 -57.33,28.22 -124.36,43.22 -198.44,43.22 -128.76,0 -231.07,-42.34 -305.15,-127.88 -74.97,-84.67 -112.01,-195.8 -112.01,-332.5 0,-125.23 8.82,-251.35 27.34,-380.12 19.4,-128.76 43.22,-258.41 72.32,-388.93 29.1,-130.53 60.85,-261.94 96.13,-392.47 35.28,-130.53 67.03,-258.41 96.13,-382.76l-373.06 -61.74c-124.35,336.02 -252.24,647.35 -382.76,933.1 -131.41,286.63 -276.93,573.26 -439.21,859.01 -87.31,157.87 -190.5,305.16 -311.33,441.86 -119.94,137.58 -252.23,256.64 -395.11,358.07 -142.87,102.3 -293.69,182.56 -451.56,243.41 -156.98,59.98 -316.61,89.96 -478.89,89.96 -119.95,0 -242.54,-16.75 -366.89,-51.15 -124.35,-33.51 -217.84,-104.95 -280.46,-212.55l24.7 -31.75zm4053.41 -4609.93c-41.45,-7.93 -72.32,-12.34 -92.6,-12.34 -70.56,0 -134.94,29.1 -193.15,87.31 -58.2,58.21 -110.24,130.53 -156.1,217.84 -45.86,87.31 -84.67,179.03 -118.18,276.93 -33.51,97.01 -61.74,185.21 -87.31,264.58 -58.21,174.63 -105.84,349.25 -142.88,525.64 -37.04,176.39 -89.07,358.07 -156.1,545.05l373.94 37.04c41.45,-149.05 87.31,-305.16 136.7,-466.55 50.27,-162.28 99.66,-327.2 149.93,-494.77 49.39,-168.45 99.66,-335.14 149.05,-500.95 50.27,-166.69 95.25,-326.32 136.7,-479.78z"/>
  <path id="_1" class="fil0" d="M7626.66 9629.17c70.56,37.04 105.83,93.49 105.83,168.45 0,74.08 -16.75,150.81 -49.39,230.19 -33.51,78.49 -73.2,148.17 -118.18,208.14 -45.86,59.97 -81.14,92.6 -105.83,97.01 -8.82,0 -13.23,-8.82 -13.23,-25.57 -20.28,-86.43 -57.33,-148.17 -112.01,-183.45 -53.79,-35.28 -114.65,-43.21 -183.44,-24.69 -68.79,18.52 -142.88,62.61 -224.01,130.52 -81.14,68.8 -158.75,164.93 -233.72,289.28 -95.25,149.93 -167.57,308.68 -217.84,476.25 -49.39,168.45 -101.42,333.38 -156.1,495.66 -32.64,103.18 -61.74,215.19 -86.44,336.02 -25.57,119.94 -42.33,222.25 -50.27,305.15 -56.44,24.69 -110.24,37.04 -159.63,37.04 -96.13,0 -169.33,-35.28 -221.37,-105.83 -52.03,-70.56 -75.84,-170.22 -71.43,-298.98 7.93,-132.29 35.27,-284.87 81.13,-457.73 44.98,-171.98 94.37,-346.6 145.53,-522.99 52.03,-176.39 98.77,-344.84 140.22,-507.12 41.46,-161.4 67.03,-296.34 74.97,-404.82 4.41,-29.1 3.53,-60.85 -3.53,-96.13 -6.17,-35.27 -14.99,-63.5 -27.34,-83.78 20.29,-4.41 38.81,-7.94 55.56,-9.7 16.76,-1.77 33.52,-2.65 49.39,-2.65 37.05,0 80.26,6.17 127,18.52 47.63,12.35 90.84,30.87 130.53,55.56 38.81,24.7 72.32,56.45 98.78,93.49 27.34,37.04 40.57,82.9 40.57,136.7 0,37.93 -5.29,84.67 -15.88,140.23 -9.7,56.45 -23.81,117.3 -39.68,183.45 -16.76,67.02 -33.52,133.17 -49.39,199.32 -16.76,67.02 -31.75,128.76 -44.1,186.97 50.27,-99.66 110.24,-218.72 180.8,-358.07 70.55,-138.47 152.58,-266.35 246.06,-382.77 93.49,-116.41 198.44,-208.14 313.97,-276.93 116.42,-68.79 246.95,-83.78 392.47,-46.74z"/>
  <path id="_2" class="fil0" d="M9692.18 11546.52c-3.53,82.9 -24.7,161.39 -61.74,236.36 -37.92,74.08 -86.43,141.11 -146.4,198.44 -59.97,58.21 -128.77,104.95 -205.5,140.23 -76.72,35.27 -152.57,52.91 -227.54,52.91 -90.84,0 -164.04,-19.4 -217.84,-57.32 -53.8,-38.81 -95.25,-88.2 -124.35,-148.17 -29.11,-60.85 -46.75,-125.24 -52.92,-193.15 -6.17,-68.79 -7.05,-132.29 -2.64,-189.61l24.69 -243.42 -12.35 74.96c-37.92,87.32 -76.73,175.51 -118.18,264.59 -41.45,89.07 -92.6,170.21 -152.57,242.53 -60.86,73.2 -128.77,130.53 -205.5,173.75 -76.73,43.21 -167.57,63.5 -270.75,59.97 -99.66,-4.41 -181.69,-28.22 -246.07,-71.44 -64.38,-44.1 -115.53,-99.66 -152.57,-168.45 -37.05,-67.91 -63.5,-143.76 -77.61,-226.66 -15,-82.9 -20.29,-165.81 -15.88,-248.71 12.35,-153.46 38.81,-310.44 77.61,-470.08 39.69,-159.63 94.37,-313.97 164.92,-463.9 70.56,-149.05 158.75,-285.75 264.59,-410.1 105.83,-124.36 231.95,-228.43 376.59,-311.33 54.68,-33.51 110.24,-59.09 168.45,-77.61 58.21,-18.52 113.77,-28.22 168.45,-28.22 82.9,0 159.63,23.81 230.19,70.55 70.56,47.63 134.94,131.41 193.15,251.36 74.08,-82.91 154.34,-149.93 239,-201.97 85.55,-52.03 181.68,-77.61 290.16,-77.61 41.45,0 72.32,1.76 92.61,6.17 -127.89,336.02 -231.07,672.93 -307.8,1010.71 -76.73,337.79 -163.16,674.69 -258.41,1009.83 -12.35,37.92 -18.52,76.73 -18.52,119.06 -4.41,32.63 0,73.2 12.34,120.83 12.35,47.62 47.63,71.44 105.84,71.44 58.21,0 119.06,-37.05 183.44,-112.01 64.38,-74.97 158.75,-209.02 283.11,-403.93zm-1628.96 515.94c50.28,8.82 104.07,-18.52 162.28,-80.26 58.21,-62.62 118.18,-145.52 179.92,-249.59 62.62,-104.07 122.59,-224.9 180.8,-364.24 58.21,-138.47 112.89,-278.7 164.92,-419.81 52.04,-141.11 97.9,-280.46 136.7,-417.16 39.69,-137.58 69.68,-257.53 90.84,-361.6 0,-12.34 0.89,-23.81 2.65,-33.51 2.64,-10.58 3.53,-22.05 3.53,-34.4 0,-29.1 -3.53,-59.97 -9.7,-93.48 -6.18,-33.52 -17.64,-64.39 -34.4,-93.49 -15.88,-29.1 -38.81,-53.8 -67.91,-74.97 -29.1,-20.28 -64.38,-30.86 -105.83,-30.86 -66.15,0 -132.3,31.75 -196.68,96.13 -64.38,64.38 -125.23,150.81 -183.44,258.41 -58.21,108.48 -112.01,231.95 -161.4,370.42 -50.27,139.34 -94.37,281.34 -134.05,426.86 -39.69,145.52 -71.44,288.39 -96.14,429.5 -25.57,141.12 -42.33,269.88 -50.27,386.3 0,29.1 0,59.09 0,89.95 0,30.87 4.41,59.98 12.35,87.32 8.82,26.46 21.17,50.27 37.92,71.43 15.88,20.29 38.81,33.52 67.91,37.05z"/>
  <path id="_3" class="fil0" d="M10602.34 10124.82c-257.53,460.38 -400.4,941.04 -429.5,1441.98 -4.41,49.39 -6.18,104.07 -6.18,164.05 0,60.85 6.18,115.53 18.52,164.92 12.35,49.39 36.16,90.84 71.44,124.35 35.28,33.52 88.19,49.39 158.75,49.39 87.31,0 177.27,-25.57 270.76,-77.61 93.48,-51.15 182.56,-119.06 268.11,-201.96 84.67,-82.91 163.16,-172.87 233.71,-269.88 70.56,-97.01 127.89,-194.03 173.75,-289.28 12.34,-20.28 21.16,-39.69 24.69,-59.09 4.41,-18.52 19.4,-37.92 44.1,-58.21 0,20.29 0.88,42.34 2.64,65.27 2.65,22.05 3.53,44.09 3.53,64.38 -24.69,108.48 -74.96,216.08 -149.05,323.67 -74.96,107.6 -162.27,207.26 -261.93,298.1 -99.66,90.84 -209.91,164.04 -329.85,220.49 -120.83,55.56 -239.01,83.78 -354.54,83.78 -112.01,0 -212.55,-22.05 -301.63,-65.26 -89.07,-43.22 -164.92,-102.31 -227.54,-177.27 -61.74,-74.97 -108.48,-163.16 -139.35,-264.59 -30.87,-101.42 -42.33,-209.9 -34.39,-326.32 7.93,-178.15 45.86,-362.48 112,-553.86 66.15,-190.5 156.11,-366.89 269.88,-528.28 114.65,-162.28 247.83,-295.45 401.28,-401.29 153.46,-105.83 321.91,-160.51 504.48,-164.92 228.42,-7.94 388.05,19.4 479.77,83.78 90.84,65.27 141.12,144.64 149.05,240.77 12.35,120.83 -19.4,224.02 -96.13,311.33 -76.73,87.31 -164.92,131.41 -264.58,131.41 -21.17,0 -41.45,-0.88 -62.62,-3.53 -20.29,-1.76 -43.22,-4.41 -68.79,-8.82 58.21,-62.61 98.78,-132.29 121.71,-209.02 22.93,-76.73 32.63,-148.16 28.22,-214.31 -4.41,-66.15 -22.05,-122.59 -52.92,-168.45 -30.87,-45.86 -74.08,-69.68 -127.88,-71.44 -53.8,-1.76 -117.3,22.93 -189.62,74.97 -73.2,52.03 -152.57,141.99 -239.89,270.75z"/>
  <path id="_4" class="fil0" d="M11921.73 10967.96c-37.92,90.84 -64.38,179.04 -81.14,264.59 -16.76,84.66 -29.1,172.86 -37.04,264.58 -4.41,49.39 -7.94,103.19 -9.7,161.4 -1.77,58.2 3.53,114.65 15.87,168.45 12.35,53.8 34.4,101.42 65.27,142.87 30.86,41.45 75.84,70.56 134.05,87.31 58.21,16.76 134.94,14.12 230.19,-6.17 95.25,-21.17 193.15,-58.21 292.81,-112.01 99.66,-53.79 191.38,-124.35 276.93,-211.66 84.66,-87.32 148.16,-190.5 189.61,-311.33 33.52,-45.86 57.33,-61.74 71.44,-49.39 14.99,12.35 17.64,32.63 9.7,61.74 -41.45,104.07 -99.66,201.08 -174.62,292.8 -74.97,90.84 -159.63,170.22 -254.88,236.36 -96.14,66.15 -197.56,119.07 -305.16,158.75 -108.48,39.69 -214.31,57.33 -317.5,52.92 -282.22,-7.94 -478.89,-82.02 -588.25,-220.48 -110.25,-139.35 -154.34,-345.73 -134.06,-619.13 12.35,-165.81 56.44,-344.84 130.53,-537.99 74.96,-192.26 173.74,-371.3 296.33,-537.1 121.71,-165.81 267.23,-303.39 435.68,-410.99 167.57,-107.59 351.9,-161.39 550.34,-161.39 133.17,0 231.95,44.09 296.33,133.17 64.38,89.08 91.72,200.2 83.78,332.49l-30.86 124.36c-54.68,136.7 -123.48,251.35 -209.02,344.84 -84.67,93.48 -179.04,166.69 -283.11,220.48 -104.07,53.8 -211.67,90.85 -323.67,112.01 -112.01,20.29 -222.25,26.46 -329.85,18.52zm30.87 -111.12c112,0 216.07,-37.04 311.32,-112.01 95.25,-74.08 178.16,-161.4 248.71,-261.06 70.56,-98.77 127,-198.43 168.45,-298.09 41.46,-98.78 64.39,-175.51 68.8,-229.31 0,-90.84 -35.28,-136.7 -105.84,-136.7 -70.55,0 -141.11,39.69 -211.66,118.18 -70.56,78.49 -137.59,172.86 -199.32,282.22 -62.62,110.25 -117.3,224.02 -164.93,341.32 -47.62,118.18 -86.43,216.95 -115.53,295.45z"/>
  <path id="_5" class="fil0" d="M13856.71 11659.41c0,58.21 -14.11,118.18 -43.21,180.8 -29.11,62.61 -67.91,119.06 -115.54,171.09 -47.62,52.04 -104.07,96.14 -170.21,131.41 -67.03,35.28 -136.7,52.92 -211.67,52.92 -45.86,0 -93.49,-7.94 -142.88,-24.69 -49.38,-16.76 -95.25,-41.46 -136.7,-74.97 -41.45,-33.51 -75.84,-77.61 -102.3,-134.06 -27.34,-55.56 -40.57,-125.23 -40.57,-208.13 0,-66.15 3.53,-131.41 9.7,-195.8 6.17,-64.38 13.23,-129.64 21.17,-196.67 41.45,-190.5 82.9,-373.06 124.35,-547.69 41.45,-173.74 83.79,-345.72 127.88,-515.94 43.22,-170.21 86.43,-343.07 130.53,-516.82 43.22,-174.62 87.31,-357.18 133.17,-547.68 8.82,-37.04 15,-74.09 18.53,-109.36 4.4,-35.28 8.81,-71.44 13.22,-108.48 3.53,-66.15 -4.41,-128.77 -25.57,-186.98 -20.29,-58.2 -59.97,-118.18 -118.18,-180.79 74.96,-12.35 141.11,-24.7 199.32,-37.05 57.32,-12.34 117.3,-18.52 179.91,-18.52 228.43,0 342.2,113.77 342.2,342.2 -8.82,87.31 -22.05,171.98 -40.57,254.88 -18.52,82.9 -38.81,165.81 -59.09,249.59 -53.8,198.44 -105.83,387.17 -155.22,566.21 -50.27,178.15 -98.78,354.54 -146.41,528.28 -47.62,174.63 -96.13,351.02 -146.4,529.17 -49.39,178.15 -98.78,366.89 -149.05,566.21 -7.94,37.04 -18.52,81.14 -30.87,130.53 -12.34,50.27 -18.52,97.01 -18.52,140.23 0,43.21 11.47,81.14 34.4,112 22.93,30.87 65.26,46.75 127,46.75 45.86,0 86.43,-14.11 121.71,-43.22 34.39,-29.1 67.02,-63.5 96.13,-103.19 29.1,-39.68 56.44,-82.02 83.78,-127.88 26.46,-44.98 56.45,-86.43 89.96,-124.35z"/>
  <path id="_6" class="fil0" d="M14237.72 9871.7c7.93,-29.1 10.58,-60.85 6.17,-96.13 -4.41,-35.27 -12.35,-63.5 -24.69,-83.78 20.28,-4.41 39.68,-7.94 55.56,-9.7 16.76,-1.77 33.51,-2.65 50.27,-2.65 37.04,0 79.37,6.17 127.88,18.52 47.63,12.35 90.84,30.87 130.53,55.56 39.69,24.7 71.44,56.45 96.13,93.49 24.7,37.04 37.93,82.9 37.93,136.7 -4.41,29.11 -6.18,62.62 -6.18,99.66 0,37.93 -6.17,79.38 -19.4,125.24l-230.19 933.1c-3.53,21.16 -14.99,63.5 -34.39,127.88 -18.53,64.38 -37.93,131.41 -59.09,201.96 0,13.23 -6.18,25.58 -18.53,37.93 -7.93,32.63 -15.87,64.38 -22.04,93.48 -6.18,29.11 -13.23,53.8 -21.17,74.09l-25.58 74.96c-12.34,37.04 -18.52,76.73 -18.52,118.18 -3.53,16.76 -5.29,35.28 -2.64,56.45 1.76,20.28 6.17,41.45 12.34,61.73 6.18,21.17 17.64,38.81 34.4,52.92 16.76,14.99 38.8,22.05 67.91,22.05 29.1,0 58.21,-7.94 87.31,-24.7 29.11,-16.75 62.62,-45.86 99.66,-87.31 37.04,-41.45 79.38,-95.25 124.36,-162.28 45.86,-66.14 102.3,-147.28 168.45,-242.53 -4.41,82.9 -27.34,162.28 -68.79,236.36 -41.46,74.97 -93.49,141.11 -155.23,199.32 -62.62,58.21 -132.29,104.95 -209.02,140.23 -76.73,34.39 -152.57,52.03 -226.66,52.03 -91.72,0 -164.04,-19.4 -217.84,-59.09 -54.68,-38.8 -93.48,-88.19 -119.06,-148.16 -24.7,-60.86 -38.81,-125.24 -43.22,-193.15 -4.41,-68.79 -4.41,-132.29 0,-189.62 0,-4.41 0.89,-7.94 3.53,-9.7 1.77,-1.76 2.65,-5.29 2.65,-9.7 12.34,-132.29 37.04,-274.29 74.96,-425.98 37.04,-151.69 76.73,-303.39 118.18,-455.08 41.45,-150.82 82.91,-297.22 124.36,-438.33 41.45,-141.11 74.96,-265.47 99.66,-373.95zm162.28 -807.86c15.87,-50.27 43.21,-92.6 80.25,-127.88 37.93,-35.28 78.5,-63.5 121.71,-83.78 43.22,-21.17 88.19,-32.64 134.06,-34.4 45.86,-1.76 84.66,7.06 118.18,28.22 45.86,32.63 76.73,80.26 93.48,142.88 16.76,62.62 12.35,128.76 -12.34,199.32 -12.35,58.21 -37.05,108.48 -72.32,152.57 -35.28,43.22 -74.97,77.62 -120.83,102.31 -45.86,25.58 -92.6,38.81 -140.23,40.57 -47.62,2.65 -89.96,-8.82 -127.88,-34.4 -44.98,-32.63 -74.08,-87.31 -87.31,-161.39 -12.35,-74.97 -7.94,-149.93 13.23,-224.02z"/>
  <path id="_7" class="fil0" d="M19009.04 9745.59c86.43,0 149.93,27.34 189.62,81.14 39.69,53.79 64.38,119.94 74.97,196.67 9.7,76.73 8.82,156.99 -3.53,239.89 -12.35,82.9 -29.11,151.69 -49.39,205.49 -96.13,258.41 -266.35,503.59 -510.65,736.43 -79.37,79.37 -164.04,155.22 -255.76,227.54 -90.84,73.2 -171.98,134.05 -242.54,184.32 82.91,66.15 165.81,127 248.71,182.57 83.79,55.56 185.21,83.78 305.16,83.78 128.76,0 229.3,-40.57 302.5,-120.82 72.32,-81.14 149.93,-187.86 232.84,-320.15l37.92 -74.97 -6.17 0 24.69 -24.69c7.94,-7.94 12.35,-14.11 12.35,-18.52 0,-4.41 1.76,-6.18 6.17,-6.18 -21.16,112.01 -59.97,221.37 -118.18,327.21 -58.21,104.95 -128.76,198.43 -211.67,279.57 -82.9,81.14 -177.27,146.41 -283.1,195.79 -105.83,50.28 -215.19,74.97 -327.2,74.97 -74.97,0 -149.93,-8.82 -227.54,-27.34 -76.73,-18.52 -151.7,-50.27 -226.66,-96.13 -50.27,-21.17 -94.37,-47.63 -134.06,-81.14 -39.69,-33.52 -80.26,-49.39 -121.71,-49.39 -53.8,37.04 -117.3,71.44 -189.62,102.31 -72.31,30.86 -149.93,57.32 -233.71,77.61 -82.9,21.16 -168.45,37.92 -258.41,50.27 -89.08,12.34 -172.86,18.52 -251.35,18.52 -199.32,0 -366.01,-31.75 -498.3,-96.13 -133.18,-64.39 -239.01,-146.41 -317.5,-246.07 -79.38,-99.66 -134.06,-209.02 -164.93,-327.2 -30.87,-118.18 -42.33,-231.07 -34.39,-338.66 7.93,-166.69 42.33,-309.57 102.3,-429.51 60.86,-120.83 136.7,-227.54 227.54,-321.03 91.73,-93.49 195.8,-176.39 314.86,-248.71 118.18,-72.32 241.65,-144.64 370.42,-215.19 -4.41,-29.11 -6.18,-62.62 -6.18,-102.31 0,-39.69 0.88,-80.26 2.65,-121.71 1.76,-41.45 4.41,-80.25 6.17,-118.18 1.77,-37.04 5.29,-70.55 9.7,-99.66 12.35,-161.39 50.27,-309.56 114.66,-444.5 64.38,-134.94 145.52,-252.23 243.41,-351.89 97.02,-99.66 209.02,-177.27 336.02,-233.72 126.12,-55.56 261.94,-83.78 407.46,-83.78 74.97,0 145.52,11.46 211.67,34.39 66.14,22.93 124.35,56.45 174.62,102.31 49.39,44.98 88.2,101.42 114.66,167.57 27.34,66.14 37.04,140.23 28.22,223.13 -12.35,132.29 -55.56,245.18 -130.53,338.67 -74.96,92.6 -165.8,173.74 -274.28,241.65 -107.6,68.79 -224.02,127 -348.37,177.27 -124.36,49.39 -242.54,97.01 -354.54,142.87 58.2,331.62 149.93,635.89 276.93,911.94 126.11,276.04 310.44,540.63 550.33,793.75l112.89 -87.32c-108.48,-145.52 -203.73,-295.45 -286.63,-451.55 -82.91,-155.22 -134.94,-313.97 -156.11,-476.25 -15.87,-90.84 -18.52,-183.45 -6.17,-276.93 12.35,-93.49 37.92,-177.27 74.96,-252.24 37.05,-74.08 86.44,-136.7 146.41,-186.09 59.97,-50.27 134.05,-74.96 220.48,-74.96 83.79,0 149.05,29.1 196.68,88.19 47.62,58.21 94.37,148.17 140.23,269.87 66.14,-88.19 129.64,-167.56 189.61,-239 59.98,-71.44 134.06,-109.36 221.37,-113.77zm-2144.01 2282.47c53.8,16.76 120.83,24.69 199.32,24.69 107.6,0 216.08,-17.63 323.68,-52.03 108.48,-34.4 216.07,-76.73 323.67,-128.76 -244.3,-269.88 -437.44,-554.75 -578.55,-855.49 -141.12,-300.74 -246.95,-627.95 -317.5,-979.84l-37.93 30.87c-144.64,120.82 -254.88,261.05 -329.85,421.57 -74.08,159.63 -118.18,323.67 -130.52,489.48 -12.35,120.82 -7.94,239 12.34,352.77 21.17,114.66 53.8,218.73 99.66,312.21 45.87,94.37 105.84,173.75 180.8,240.77 74.97,66.15 159.63,114.66 254.88,143.76zm1531.06 -672.04c62.62,-50.27 129.65,-109.36 201.97,-177.27 73.2,-68.79 141.11,-143.76 205.49,-224.02 64.38,-81.14 122.59,-167.57 174.63,-258.41 52.03,-91.72 88.19,-180.8 108.47,-268.11 33.52,-141.99 42.34,-248.71 25.58,-320.14 -16.76,-70.56 -70.55,-112.89 -162.28,-125.24 -45.86,-7.94 -87.31,0 -124.35,24.69 -37.04,25.58 -74.08,59.09 -109.36,100.55 -35.28,42.33 -67.03,88.19 -96.13,138.46 -29.11,50.27 -55.57,94.37 -81.14,132.29 -3.53,-37.92 -9.7,-80.25 -18.52,-126.11 -7.94,-45.87 -20.29,-89.08 -37.05,-128.77 -16.75,-39.69 -39.68,-72.32 -68.79,-97.01 -29.1,-25.58 -64.38,-37.93 -105.83,-37.93 -53.8,0 -99.66,18.52 -136.7,56.45 -37.93,37.92 -68.79,83.78 -93.49,138.46 -24.69,54.68 -42.33,112.89 -52.92,175.51 -10.58,62.62 -13.22,119.06 -9.7,168.45 13.23,153.46 54.68,299.86 125.24,439.21 70.55,138.47 155.22,268.11 254.88,388.94zm-1083.03 -2006.43c-8.82,74.97 -9.7,143.76 -3.52,205.5 6.17,62.61 15.87,133.17 28.22,211.66 245.18,-78.49 443.62,-201.08 597.96,-366.89l-6.18 0c70.56,-74.96 130.53,-154.34 179.92,-239.88 50.27,-84.67 79.37,-175.51 87.31,-270.76 7.94,-116.42 -7.94,-209.9 -49.39,-280.46 -41.45,-70.56 -112,-105.83 -211.66,-105.83 -83.79,0 -158.75,21.16 -227.55,62.61 -68.79,41.46 -129.64,96.14 -183.44,164.93 -53.8,68.79 -97.9,145.52 -131.41,230.19 -32.63,85.54 -53.8,171.09 -61.74,258.41l-18.52 130.52z"/>
  <path id="_8" class="fil0" d="M3585.59 16720.89c-74.97,78.49 -140.23,177.27 -195.79,295.45 -56.45,118.18 -92.61,254 -109.37,407.46 -29.1,266.35 -1.76,474.48 81.14,626.18 82.91,151.69 194.91,257.53 336.02,317.5 141.12,59.97 298.1,78.49 470.08,55.56 171.98,-22.93 335.14,-76.73 488.6,-161.39 153.46,-85.55 285.75,-197.56 395.11,-336.03 110.24,-139.34 171.98,-296.33 184.33,-470.07 12.34,-191.38 -11.47,-360.72 -72.32,-508 -59.98,-147.29 -137.59,-283.11 -232.84,-407.46 -95.25,-124.35 -199.32,-240.77 -311.32,-348.37 -112.01,-108.48 -215.2,-218.72 -308.68,-333.37 -92.61,-113.78 -167.57,-235.48 -224.02,-364.25 -55.56,-128.76 -73.2,-276.05 -52.91,-441.85 16.75,-133.18 56.44,-251.36 118.18,-354.54 62.61,-104.07 141.11,-192.27 237.24,-264.59 95.25,-73.2 201.96,-128.76 320.15,-168.45 118.18,-39.69 239.88,-59.09 364.24,-59.09 79.37,0 169.33,14.11 270.76,43.22 102.3,29.1 196.67,74.08 283.1,134.05 87.31,59.97 157.87,134.06 211.67,221.37 54.68,87.31 74.96,186.97 62.62,298.98 -7.94,57.33 -29.11,115.53 -62.62,173.74 -32.63,58.21 -73.2,112.89 -120.83,164.93 -47.62,52.03 -100.54,97.01 -158.75,134.05 -58.21,37.04 -112.01,64.38 -162.28,81.14 -7.93,-4.41 -14.11,-8.82 -18.52,-12.35 -4.41,-4.41 -10.58,-8.82 -18.52,-12.34 58.21,-70.56 97.01,-146.41 118.18,-227.55 20.29,-81.13 35.28,-150.81 43.22,-209.02 13.23,-86.43 7.93,-171.09 -15,-251.35 -22.93,-81.14 -57.32,-155.22 -103.18,-221.37 -45.86,-66.14 -100.55,-119.06 -164.93,-158.75 -64.38,-39.69 -135.82,-59.09 -214.31,-59.09 -82.9,0 -153.46,17.64 -211.67,52.92 -58.21,35.28 -107.59,80.25 -146.4,134.05 -39.69,53.8 -70.56,114.66 -93.49,183.45 -22.93,68.79 -38.8,135.82 -46.74,201.96 -7.94,120.83 1.76,233.72 30.87,339.55 29.1,105.84 85.55,204.61 168.45,295.45 107.6,116.42 222.25,234.6 342.2,355.43 120.82,119.94 229.3,246.06 327.2,376.59 97.01,130.53 172.86,268.11 226.66,413.63 53.8,145.52 70.55,305.15 50.27,479.78 -24.7,202.85 -82.02,390.7 -171.1,563.56 -89.96,171.98 -206.37,320.15 -351.9,444.5 -145.52,124.36 -318.38,218.72 -520.34,283.11 -201.09,64.38 -421.57,88.19 -662.34,72.31 -166.69,-13.22 -328.09,-44.97 -485.96,-97.01 -157.86,-52.03 -295.45,-124.35 -413.63,-217.84 -118.18,-93.49 -210.78,-208.14 -276.93,-345.72 -67.03,-136.7 -91.72,-294.57 -74.96,-472.72 12.34,-141.12 49.38,-275.17 112,-401.29 61.74,-127 141.11,-236.36 236.36,-327.2 95.25,-91.72 206.38,-164.04 333.38,-217.84 126.12,-53.8 260.17,-81.14 401.28,-81.14 78.5,0 163.16,10.58 252.24,30.87 89.08,21.16 174.63,51.15 254.88,90.84 81.14,38.8 155.23,89.07 221.37,149.05 66.15,59.97 113.77,127.88 142.88,202.84 33.51,86.43 31.75,170.22 -6.18,248.71 -24.69,49.39 -64.38,93.49 -118.18,130.53 -53.8,37.92 -114.65,65.26 -183.44,84.67 -68.79,18.52 -140.23,27.34 -215.2,27.34 -74.08,0 -147.28,-7.94 -217.84,-24.7 79.38,-49.39 156.99,-97.89 233.72,-142.87 76.73,-45.86 135.82,-110.25 177.27,-193.15 41.45,-82.9 58.21,-160.51 50.27,-233.71 -8.82,-72.32 -47.63,-131.41 -118.18,-177.27 -62.62,-37.05 -126.12,-56.45 -190.5,-56.45 -64.38,0 -127,11.47 -189.62,34.4 -62.62,22.93 -119.06,53.8 -171.1,93.48 -52.03,39.69 -97.01,77.61 -134.05,115.54z"/>
  <path id="_9" class="fil0" d="M8098.5 17609.89c-3.53,82.9 -24.7,161.39 -61.74,236.36 -37.92,74.08 -86.43,141.11 -146.4,198.44 -59.97,58.21 -128.77,104.95 -205.5,140.23 -76.72,35.27 -152.57,52.91 -227.54,52.91 -90.84,0 -164.04,-19.4 -217.84,-57.32 -53.8,-38.81 -95.25,-88.2 -124.35,-148.17 -29.11,-60.85 -46.75,-125.24 -52.92,-193.15 -6.17,-68.79 -7.05,-132.29 -2.64,-189.61l24.69 -243.42 -12.35 74.96c-37.92,87.32 -76.73,175.51 -118.18,264.59 -41.45,89.07 -92.6,170.21 -152.57,242.53 -60.86,73.2 -128.77,130.53 -205.5,173.75 -76.73,43.21 -167.57,63.5 -270.75,59.97 -99.66,-4.41 -181.69,-28.22 -246.07,-71.44 -64.38,-44.1 -115.53,-99.66 -152.57,-168.45 -37.05,-67.91 -63.5,-143.76 -77.61,-226.66 -15,-82.9 -20.29,-165.81 -15.88,-248.71 12.35,-153.46 38.81,-310.44 77.61,-470.08 39.69,-159.63 94.37,-313.97 164.92,-463.9 70.56,-149.05 158.75,-285.75 264.59,-410.1 105.83,-124.36 231.95,-228.43 376.59,-311.33 54.68,-33.51 110.24,-59.09 168.45,-77.61 58.21,-18.52 113.77,-28.22 168.45,-28.22 82.9,0 159.63,23.81 230.19,70.55 70.56,47.63 134.94,131.41 193.15,251.36 74.08,-82.91 154.34,-149.93 239,-201.97 85.55,-52.03 181.68,-77.61 290.16,-77.61 41.45,0 72.32,1.76 92.61,6.17 -127.89,336.02 -231.07,672.93 -307.8,1010.71 -76.73,337.79 -163.16,674.69 -258.41,1009.83 -12.35,37.92 -18.52,76.73 -18.52,119.06 -4.41,32.63 0,73.2 12.34,120.83 12.35,47.62 47.63,71.44 105.84,71.44 58.21,0 119.06,-37.05 183.44,-112.01 64.38,-74.97 158.75,-209.02 283.11,-403.93zm-1628.96 515.94c50.28,8.82 104.07,-18.52 162.28,-80.26 58.21,-62.62 118.18,-145.52 179.92,-249.59 62.62,-104.07 122.59,-224.9 180.8,-364.24 58.21,-138.47 112.89,-278.7 164.92,-419.81 52.04,-141.11 97.9,-280.46 136.7,-417.16 39.69,-137.58 69.68,-257.53 90.84,-361.6 0,-12.34 0.89,-23.81 2.65,-33.51 2.64,-10.58 3.53,-22.05 3.53,-34.4 0,-29.1 -3.53,-59.97 -9.7,-93.48 -6.18,-33.52 -17.64,-64.39 -34.4,-93.49 -15.88,-29.1 -38.81,-53.8 -67.91,-74.97 -29.1,-20.28 -64.38,-30.86 -105.83,-30.86 -66.15,0 -132.3,31.75 -196.68,96.13 -64.38,64.38 -125.23,150.81 -183.44,258.41 -58.21,108.48 -112.01,231.95 -161.4,370.42 -50.27,139.34 -94.37,281.34 -134.05,426.86 -39.69,145.52 -71.44,288.39 -96.14,429.5 -25.57,141.12 -42.33,269.88 -50.27,386.3 0,29.1 0,59.09 0,89.95 0,30.87 4.41,59.98 12.35,87.32 8.82,26.46 21.17,50.27 37.92,71.43 15.88,20.29 38.81,33.52 67.91,37.05z"/>
  <path id="_10" class="fil0" d="M10318.35 17591.37l37.92 18.52c-21.16,74.96 -50.27,147.28 -87.31,217.84 -37.92,70.55 -82.9,133.17 -137.58,186.97 -53.8,53.8 -112.89,97.9 -177.27,130.53 -65.27,33.51 -134.94,50.27 -209.91,50.27 -87.31,0 -160.51,-17.64 -220.48,-52.92 -60.86,-35.27 -109.36,-81.14 -146.4,-136.7 -37.93,-56.44 -64.39,-117.3 -81.14,-184.32 -16.76,-66.15 -24.7,-130.53 -24.7,-193.15 -4.41,-132.29 12.35,-265.47 49.39,-398.64 37.04,-132.29 80.26,-264.58 127.88,-395.11 47.63,-130.53 89.96,-261.94 127,-392.47 37.93,-130.52 56.45,-260.17 56.45,-388.93 -4.41,-70.56 -16.76,-118.19 -37.04,-143.76 -21.17,-24.7 -47.63,-37.04 -81.14,-37.04 -21.17,0 -45.86,10.58 -74.97,30.86 -29.1,21.17 -59.09,46.75 -89.96,78.5 -31.75,30.87 -60.85,63.5 -87.31,98.78 -27.34,35.27 -46.74,67.91 -59.09,97.01 -74.96,132.29 -146.4,274.28 -215.19,425.98 -67.91,151.69 -129.65,301.62 -183.45,451.56 -53.8,149.04 -97.89,290.16 -130.53,423.33 -33.51,132.29 -54.68,246.94 -62.61,342.19 0,12.35 -1.77,36.16 -6.18,71.44 -4.41,35.28 -11.46,127.88 -20.28,276.93 -29.11,0 -58.21,1.77 -87.32,5.29 -29.1,3.53 -60.85,5.29 -93.48,5.29 -100.54,0 -181.68,-29.1 -244.3,-87.31 -62.62,-58.21 -93.49,-141.11 -93.49,-249.59l0 -62.62 5.3 0c0,-7.93 -0.89,-14.11 -2.65,-18.52 -1.76,-4.41 -2.65,-10.58 -2.65,-18.52 0,-29.1 2.65,-57.32 7.06,-84.66 4.41,-26.46 9.7,-56.45 14.11,-89.96 58.21,-303.39 125.24,-599.73 201.97,-889 76.72,-289.28 155.22,-597.96 233.71,-926.05 4.41,0 22.93,-2.64 55.56,-6.17 33.52,-4.41 62.62,-7.05 87.32,-7.05 62.61,0 119.06,8.81 171.09,25.57 52.04,16.76 91.73,47.63 118.18,93.49 27.34,45.86 38.81,112.89 34.4,202.85 -4.41,89.07 -29.1,204.61 -74.97,345.72 0,4.41 -3.52,29.1 -12.34,74.96 41.45,-91.72 89.96,-184.32 143.75,-277.81 53.8,-93.49 117.3,-177.27 190.5,-252.24 72.32,-74.96 155.23,-134.93 246.07,-180.79 91.72,-45.87 194.02,-68.8 306.03,-68.8 116.42,0 211.67,31.75 283.99,96.14 73.2,64.38 111.12,169.33 115.53,314.85 7.94,108.48 -3.52,227.54 -34.39,358.95 -30.87,130.53 -61.74,254 -90.84,370.42l-255.77 872.24c-20.28,82.9 -25.57,156.11 -14.99,217.84 9.7,62.62 40.57,99.66 89.96,112.01 87.31,21.17 163.16,-17.64 227.54,-114.65 65.26,-97.9 134.06,-210.79 209.02,-339.55z"/>
  <path id="_11" class="fil0" d="M11212.64 16188.19c-257.53,460.38 -400.4,941.04 -429.5,1441.98 -4.41,49.39 -6.18,104.07 -6.18,164.05 0,60.85 6.18,115.53 18.52,164.92 12.35,49.39 36.16,90.84 71.44,124.35 35.28,33.52 88.19,49.39 158.75,49.39 87.31,0 177.27,-25.57 270.76,-77.61 93.48,-51.15 182.56,-119.06 268.11,-201.96 84.67,-82.91 163.16,-172.87 233.71,-269.88 70.56,-97.01 127.89,-194.03 173.75,-289.28 12.34,-20.28 21.16,-39.69 24.69,-59.09 4.41,-18.52 19.4,-37.92 44.1,-58.21 0,20.29 0.88,42.34 2.64,65.27 2.65,22.05 3.53,44.09 3.53,64.38 -24.69,108.48 -74.96,216.08 -149.05,323.67 -74.96,107.6 -162.27,207.26 -261.93,298.1 -99.66,90.84 -209.91,164.04 -329.85,220.49 -120.83,55.56 -239.01,83.78 -354.54,83.78 -112.01,0 -212.55,-22.05 -301.63,-65.26 -89.07,-43.22 -164.92,-102.31 -227.54,-177.27 -61.74,-74.97 -108.48,-163.16 -139.35,-264.59 -30.87,-101.42 -42.33,-209.9 -34.39,-326.32 7.93,-178.15 45.86,-362.48 112,-553.86 66.15,-190.5 156.11,-366.89 269.88,-528.28 114.65,-162.28 247.83,-295.45 401.28,-401.29 153.46,-105.83 321.91,-160.51 504.48,-164.92 228.42,-7.94 388.05,19.4 479.77,83.78 90.84,65.27 141.12,144.64 149.05,240.77 12.35,120.83 -19.4,224.02 -96.13,311.33 -76.73,87.31 -164.92,131.41 -264.58,131.41 -21.17,0 -41.45,-0.88 -62.62,-3.53 -20.29,-1.76 -43.22,-4.41 -68.79,-8.82 58.21,-62.61 98.78,-132.29 121.71,-209.02 22.93,-76.73 32.63,-148.16 28.22,-214.31 -4.41,-66.15 -22.05,-122.59 -52.92,-168.45 -30.87,-45.86 -74.08,-69.68 -127.88,-71.44 -53.8,-1.76 -117.3,22.93 -189.62,74.97 -73.2,52.03 -152.57,141.99 -239.89,270.75z"/>
  <path id="_12" class="fil0" d="M12761.34 16534.8c49.38,-90.84 99.66,-183.45 149.04,-276.93 50.27,-93.49 105.84,-177.27 168.46,-252.24 61.73,-74.08 135.81,-135.82 220.48,-183.44 85.55,-47.63 187.86,-71.44 307.8,-71.44 133.17,0 241.65,42.33 327.2,127 84.67,85.55 114.65,200.2 89.96,344.84 -16.76,87.31 -40.57,188.74 -71.44,305.15 -30.87,115.54 -66.14,239.01 -105.83,369.54 -39.69,130.52 -80.26,263.7 -121.71,400.4 -41.45,136.7 -78.49,265.47 -112.01,385.41 -20.28,62.62 -30.86,119.94 -30.86,173.74 0,41.45 5.29,87.32 15.87,136.7 9.7,50.28 40.57,74.97 89.96,74.97 37.04,0 76.73,-12.35 118.18,-37.04 41.45,-25.58 81.14,-56.45 118.18,-93.49 37.92,-37.92 73.2,-76.73 105.83,-118.18 33.52,-41.45 62.62,-79.37 87.32,-112.01l24.69 18.53c-49.39,112 -118.18,214.31 -205.49,306.91 -87.31,92.61 -217.84,142.88 -391.59,151.7 -133.17,7.93 -242.53,-34.4 -329.84,-127.89 -87.32,-93.48 -130.53,-221.36 -130.53,-382.76 0,-96.13 12.35,-187.85 37.04,-274.28 24.7,-87.32 50.27,-177.28 74.97,-268.12 4.41,-25.57 17.63,-72.32 40.57,-140.22 22.93,-68.8 47.62,-148.17 74.08,-237.25 27.34,-89.07 52.03,-181.68 74.96,-276.93 22.93,-96.13 37.93,-183.44 46.75,-261.94 7.93,-79.37 5.29,-144.64 -9.7,-196.67 -14.12,-52.03 -46.75,-77.61 -96.14,-77.61 -49.39,0 -101.42,29.1 -155.22,87.31 -53.8,58.21 -110.24,134.06 -168.45,227.54 -58.21,93.49 -113.77,201.09 -167.57,321.03 -53.8,120.83 -104.07,246.06 -149.93,374.83 -45.86,128.76 -87.31,255.76 -124.35,380.12 -37.05,125.23 -66.15,237.24 -87.32,336.9 -16.75,79.37 -28.22,158.75 -34.39,239.89 -6.18,81.14 -15,170.21 -27.34,265.46 -29.11,0 -58.21,0.89 -87.32,2.65 -29.1,1.76 -59.97,2.64 -93.48,2.64 -99.66,0 -177.27,-29.1 -233.72,-87.31 -55.56,-58.21 -83.78,-141.11 -83.78,-249.59 0,-116.41 12.35,-233.71 37.04,-351.89 25.58,-118.18 54.68,-233.72 87.31,-345.73 116.42,-415.39 206.38,-743.48 270.76,-985.13 64.38,-240.77 112.01,-432.15 143.76,-573.26 30.86,-141.11 50.27,-249.59 59.09,-323.68 7.93,-74.96 14.11,-151.69 18.52,-231.07 3.53,-58.21 -2.65,-115.53 -18.52,-171.09 -16.76,-56.45 -50.27,-111.13 -99.66,-164.93 74.08,-13.23 141.99,-25.57 201.96,-37.92 59.97,-12.35 121.71,-18.52 183.45,-18.52 82.9,0 149.05,15.87 196.67,46.74 47.63,31.75 82.9,70.56 105.83,119.06 22.93,47.63 33.52,101.43 33.52,162.28 0,59.97 -3.53,121.71 -12.35,183.45 -16.76,129.64 -37.04,246.94 -61.74,352.77 -24.69,106.72 -53.79,212.55 -87.31,318.39 -33.51,105.83 -67.03,216.07 -102.3,329.84 -35.28,114.66 -72.32,241.66 -109.36,382.77z"/>
  <path id="_13" class="fil0" d="M14717.49 17031.33c-37.92,90.84 -64.38,179.04 -81.14,264.59 -16.76,84.66 -29.1,172.86 -37.04,264.58 -4.41,49.39 -7.94,103.19 -9.7,161.4 -1.77,58.2 3.53,114.65 15.87,168.45 12.35,53.8 34.4,101.42 65.27,142.87 30.86,41.45 75.84,70.56 134.05,87.31 58.21,16.76 134.94,14.12 230.19,-6.17 95.25,-21.17 193.15,-58.21 292.81,-112.01 99.66,-53.79 191.38,-124.35 276.93,-211.66 84.66,-87.32 148.16,-190.5 189.61,-311.33 33.52,-45.86 57.33,-61.74 71.44,-49.39 14.99,12.35 17.64,32.63 9.7,61.74 -41.45,104.07 -99.66,201.08 -174.62,292.8 -74.97,90.84 -159.63,170.22 -254.88,236.36 -96.14,66.15 -197.56,119.07 -305.16,158.75 -108.48,39.69 -214.31,57.33 -317.5,52.92 -282.22,-7.94 -478.89,-82.02 -588.25,-220.48 -110.25,-139.35 -154.34,-345.73 -134.06,-619.13 12.35,-165.81 56.44,-344.84 130.53,-537.99 74.96,-192.26 173.74,-371.3 296.33,-537.1 121.71,-165.81 267.23,-303.39 435.68,-410.99 167.57,-107.59 351.9,-161.39 550.34,-161.39 133.17,0 231.95,44.09 296.33,133.17 64.38,89.08 91.72,200.2 83.78,332.49l-30.86 124.36c-54.68,136.7 -123.48,251.35 -209.02,344.84 -84.67,93.48 -179.04,166.69 -283.11,220.48 -104.07,53.8 -211.67,90.85 -323.67,112.01 -112.01,20.29 -222.25,26.46 -329.85,18.52zm30.87 -111.12c112,0 216.07,-37.04 311.32,-112.01 95.25,-74.08 178.16,-161.4 248.71,-261.06 70.56,-98.77 127,-198.43 168.45,-298.09 41.46,-98.78 64.39,-175.51 68.8,-229.31 0,-90.84 -35.28,-136.7 -105.84,-136.7 -70.55,0 -141.11,39.69 -211.66,118.18 -70.56,78.49 -137.59,172.86 -199.32,282.22 -62.62,110.25 -117.3,224.02 -164.93,341.32 -47.62,118.18 -86.43,216.95 -115.53,295.45z"/>
  <path id="_14" class="fil0" d="M16267.06 16651.21c-173.74,-4.41 -250.47,-89.07 -230.19,-254.88 12.35,-104.07 28.23,-206.37 46.75,-308.68 18.52,-101.42 38.8,-209.9 59.09,-326.32 87.31,59.97 162.28,104.95 224.01,134.94 62.62,29.99 133.18,44.98 211.67,44.98 87.31,0 176.39,-13.23 268.11,-39.69 90.84,-26.46 176.39,-39.69 254.88,-39.69 70.56,0 134.94,15.88 193.15,46.75 58.21,31.75 112.01,86.43 162.28,165.8 20.28,-58.21 36.16,-107.59 46.74,-149.05 9.7,-42.33 23.81,-83.78 39.69,-125.23 33.51,16.75 54.68,37.92 62.61,62.62 7.94,24.69 12.35,52.03 12.35,81.13 -12.35,87.32 -61.73,179.92 -149.05,279.58 -87.31,99.66 -192.26,202.85 -314.85,308.68 -122.59,105.84 -252.24,209.9 -388.94,313.97 -136.7,104.07 -257.53,199.32 -360.71,286.64 -108.48,95.25 -215.2,191.38 -321.03,289.27 -105.84,97.02 -208.14,197.56 -307.8,301.63 107.6,-37.04 205.49,-63.5 292.8,-80.26 86.44,-16.75 167.57,-24.69 242.54,-24.69 61.74,0 121.71,11.46 177.27,33.51 56.44,22.93 112.01,48.51 168.45,76.73 55.56,28.22 114.65,55.56 177.27,79.38 61.74,24.69 132.29,38.8 211.67,43.21 70.56,4.41 126.12,-4.41 167.57,-24.69 41.45,-21.17 68.79,-48.51 81.14,-83.79 12.35,-35.28 12.35,-74.96 0,-118.18 -12.35,-43.21 -32.63,-88.19 -61.74,-134.05 61.74,33.51 105.84,74.08 130.53,121.7 24.69,48.51 32.63,101.43 24.69,159.64 -7.93,70.55 -33.51,133.17 -74.96,186.97 -41.45,53.8 -91.72,101.42 -152.58,143.76 -59.97,41.45 -125.23,72.32 -195.79,93.48 -70.55,20.29 -139.35,30.87 -205.49,30.87 -90.84,0 -175.51,-16.76 -252.24,-50.27 -76.73,-32.63 -152.58,-68.79 -226.66,-105.83 -74.96,-37.93 -150.81,-73.21 -227.54,-105.84 -76.73,-33.51 -158.75,-50.27 -246.06,-50.27 -141.11,0 -251.36,95.25 -329.85,285.75 -4.41,7.94 -9.7,14.11 -15.88,18.52 -6.17,4.41 -21.16,10.59 -46.74,18.52 29.11,-156.98 87.31,-299.86 174.63,-428.62 87.31,-128.77 189.61,-249.59 307.8,-363.36 119.06,-113.77 244.29,-221.37 376.59,-322.8 133.17,-101.42 260.17,-201.96 380.11,-301.62 87.32,-70.56 174.63,-140.23 261.94,-210.79 86.43,-70.55 176.39,-145.52 267.23,-224.01 -124.35,41.45 -246.94,62.62 -366.89,62.62 -108.48,0 -211.66,-13.23 -311.32,-40.57 -99.66,-26.46 -201.97,-60.85 -305.16,-102.31 -29.1,49.39 -45.86,90.84 -50.27,124.36 -3.53,44.98 6.18,84.66 31.75,119.06 24.7,35.28 53.8,68.79 86.43,101.42z"/>
 </g>
</svg>
